<svg xmlns="http://www.w3.org/2000/svg" viewBox="0 0 96 96" fill="none">
  <defs>
    <linearGradient id="bg" x1="10" y1="10" x2="86" y2="86" gradientUnits="userSpaceOnUse">
      <stop stop-color="#101828"/>
      <stop offset="1" stop-color="#1f2937"/>
    </linearGradient>
    <linearGradient id="leftGlow" x1="16" y1="48" x2="34" y2="48" gradientUnits="userSpaceOnUse">
      <stop stop-color="#ff4fd8"/>
      <stop offset="1" stop-color="#b84dff"/>
    </linearGradient>
    <linearGradient id="rightGlow" x1="62" y1="48" x2="80" y2="48" gradientUnits="userSpaceOnUse">
      <stop stop-color="#38bdf8"/>
      <stop offset="1" stop-color="#22d3ee"/>
    </linearGradient>
    <filter id="softGlow" x="-20%" y="-20%" width="140%" height="140%">
      <feGaussianBlur stdDeviation="1.8" result="blur"/>
      <feMerge>
        <feMergeNode in="blur"/>
        <feMergeNode in="SourceGraphic"/>
      </feMerge>
    </filter>
  </defs>

  <rect width="96" height="96" rx="22" fill="url(#bg)"/>

  <path d="M25 19C19.5 24.5 19.5 71.5 25 77" stroke="url(#leftGlow)" stroke-width="7" stroke-linecap="round" filter="url(#softGlow)"/>
  <path d="M18 34L7 48L18 62" stroke="url(#leftGlow)" stroke-width="7" stroke-linecap="round" stroke-linejoin="round" filter="url(#softGlow)"/>

  <path d="M71 19C76.5 24.5 76.5 71.5 71 77" stroke="url(#rightGlow)" stroke-width="7" stroke-linecap="round" filter="url(#softGlow)"/>
  <path d="M78 34L89 48L78 62" stroke="url(#rightGlow)" stroke-width="7" stroke-linecap="round" stroke-linejoin="round" filter="url(#softGlow)"/>

  <path d="M34 29H45.5C56.8 29 63 35 63 48C63 61 56.8 67 45.5 67H34V29ZM42 36V60H45C51.9 60 55 56.5 55 48C55 39.5 51.9 36 45 36H42Z" fill="#F8FAFC"/>
</svg>